# xmcd CD Database Entry
#
# Track frame offsets:
# 150
# 2280
# 27147
# 53622
# 77790
# 101335
# 107440
# 127750
# 153117
# 175440
# 197682
# 201215
# 226637
# 249215
#
# Disc length: 3673 seconds
#
# Revision: 2
# Processed by: cddbd v1.5.2PL0 Copyright (c) Steve Scherf et al.
# Submitted via: tcd 2.0b
#
DISCID=8f0e570e
DTITLE=Ken Hirai/THE CHANGING SAME
DYEAR=1900
DGENRE=
TTITLE0=Introduction −HERE COMES K.H.−
TTITLE1=Love Love Love　
TTITLE2=why
TTITLE3=affair
TTITLE4=the flower is you
TTITLE5=Interlude −BRIGHTEN UP−
TTITLE6=K.O.L.
TTITLE7=LADYNAPPER
TTITLE8=Unfit In Love
TTITLE9=wonderful world
TTITLE10=Interlude −TURN OFF THE LIGHTS−
TTITLE11=楽園
TTITLE12=アオイトリ
TTITLE13=The Changing Same −変わりゆく変わらないもの−
EXTD=
EXTT0=
EXTT1=
EXTT2=
EXTT3=
EXTT4=
EXTT5=
EXTT6=
EXTT7=
EXTT8=
EXTT9=
EXTT10=
EXTT11=
EXTT12=
EXTT13=
PLAYORDER=
